<svg viewBox="0 0 800 280" fill="none" xmlns="http://www.w3.org/2000/svg" style="width: 100%; max-width: 800px; margin: 0 auto; display: block; border-radius: 12px; background: #0b0b0f; border: 1px solid #1a1a24;">
  <style>
    @keyframes pulse {
      0%, 100% { opacity: 0.3; transform: scale(1); }
      50% { opacity: 1; transform: scale(1.1); }
    }
    @keyframes spin {
      to { transform: rotate(360deg); }
    }
    @keyframes dash {
      to { stroke-dashoffset: -40; }
    }
    .node { animation: pulse 3s infinite ease-in-out; transform-origin: center; }
    .node-fast { animation: pulse 1.5s infinite ease-in-out; transform-origin: center; }
    .spinner { animation: spin 10s linear infinite; transform-origin: 650px 140px; }
    .spinner-reverse { animation: spin 15s linear infinite reverse; transform-origin: 650px 140px; }
    .flow-line { stroke-dasharray: 8 4; animation: dash 2s linear infinite; }
  </style>
  
  <!-- Definitions for gradients -->
  <defs>
    <linearGradient id="brand-grad" x1="0%" y1="0%" x2="100%" y2="100%">
      <stop offset="0%" stop-color="#3b82f6" />
      <stop offset="100%" stop-color="#06b6d4" />
    </linearGradient>
    <linearGradient id="glow-grad" x1="0%" y1="0%" x2="100%" y2="100%">
      <stop offset="0%" stop-color="#ef4444" stop-opacity="0.8" />
      <stop offset="100%" stop-color="#f59e0b" stop-opacity="0.2" />
    </linearGradient>
    <linearGradient id="node-grad" x1="0%" y1="0%" x2="100%" y2="100%">
      <stop offset="0%" stop-color="#1e1b4b" />
      <stop offset="100%" stop-color="#0f172a" />
    </linearGradient>
  </defs>

  <!-- Background grid pattern -->
  <rect width="100%" height="100%" fill="#0a0a0c" />
  <g opacity="0.15">
    <path d="M0 40H800M0 80H800M0 120H800M0 160H800M0 200H800M0 240H800" stroke="#71717a" stroke-width="1"/>
    <path d="M80 0V280M160 0V280M240 0V280M320 0V280M400 0V280M480 0V280M560 0V280M640 0V280M720 0V280" stroke="#71717a" stroke-width="1"/>
  </g>

  <!-- Left: Logo and Brand Name -->
  <g transform="translate(60, 95)">
    <!-- Outer hexagonal logo ring -->
    <path d="M 0,-40 L 35,-20 L 35,20 L 0,40 L -35,20 L -35,-20 Z" fill="url(#node-grad)" stroke="url(#brand-grad)" stroke-width="3" />
    <!-- Glowing core node inside logo -->
    <circle cx="0" cy="0" r="10" fill="url(#brand-grad)" class="node-fast" />
    
    <!-- Title Text -->
    <text x="60" y="-8" fill="#ffffff" font-family="'DM Sans', system-ui, sans-serif" font-weight="900" font-size="34" letter-spacing="-0.03em">ForeSee</text>
    <text x="60" y="16" fill="#71717a" font-family="'DM Sans', system-ui, sans-serif" font-weight="500" font-size="14" letter-spacing="0.05em">COGNITIVE TASK RESCUE</text>
    <text x="60" y="34" fill="url(#brand-grad)" font-family="'DM Sans', system-ui, sans-serif" font-weight="700" font-size="11" letter-spacing="0.1em">MULTI-AGENT AUTOPILOT</text>
  </g>

  <!-- Right: Orchestration Pipeline Visualizer -->
  <!-- Connection lines -->
  <path d="M450 140 H650" stroke="#3b82f6" stroke-opacity="0.3" stroke-width="2" />
  <path d="M520 80 V200" stroke="#3b82f6" stroke-opacity="0.3" stroke-width="2" />
  <path d="M520 80 L650 140" stroke="#06b6d4" stroke-opacity="0.2" stroke-width="1.5" />
  <path d="M520 200 L650 140" stroke="#ef4444" stroke-opacity="0.2" stroke-width="1.5" />
  
  <!-- Flow animations (dashed moving overlays) -->
  <path d="M450 140 H650" stroke="url(#brand-grad)" stroke-width="2.5" fill="none" class="flow-line" />
  
  <!-- Central Hub - Scheduling Optimizer (Rotating Gauge) -->
  <circle cx="650" cy="140" r="50" fill="#111115" stroke="#1d1d24" stroke-width="3" />
  <circle cx="650" cy="140" r="42" fill="none" stroke="url(#brand-grad)" stroke-width="1.5" stroke-dasharray="180 90" class="spinner" />
  <circle cx="650" cy="140" r="35" fill="none" stroke="#22c55e" stroke-width="1.5" stroke-dasharray="40 40" class="spinner-reverse" />
  <circle cx="650" cy="140" r="14" fill="#000" stroke="#2563eb" stroke-width="2" />
  <circle cx="650" cy="140" r="6" fill="#06b6d4" class="node-fast" />

  <!-- Node 1: Tasks Input (Top Left) -->
  <g transform="translate(450, 80)">
    <circle cx="0" cy="0" r="22" fill="#111115" stroke="#3b82f6" stroke-width="2" />
    <path d="M-8 -4 H8 M-8 2 H8 M-8 8 H4" stroke="#3b82f6" stroke-width="2" stroke-linecap="round" />
    <circle cx="0" cy="0" r="3" fill="#3b82f6" class="node" />
    <text x="0" y="36" fill="#71717a" font-family="system-ui" font-size="10" text-anchor="middle" font-weight="600">Tasks Queue</text>
  </g>

  <!-- Node 2: Gemini API (Bottom Left) -->
  <g transform="translate(450, 200)">
    <circle cx="0" cy="0" r="22" fill="#111115" stroke="#a855f7" stroke-width="2" />
    <path d="M0 -10 L2 -3 L9 0 L2 3 L0 10 L-2 3 L-9 0 L-2 -3 Z" fill="#a855f7" />
    <text x="0" y="36" fill="#71717a" font-family="system-ui" font-size="10" text-anchor="middle" font-weight="600">Gemini LLM</text>
  </g>

  <!-- Node 3: Firebase (Top Middle) -->
  <g transform="translate(520, 80)">
    <circle cx="0" cy="0" r="18" fill="#111115" stroke="#f59e0b" stroke-width="1.5" />
    <path d="M-5 -5 L5 5 M5 -5 L-5 5" stroke="#f59e0b" stroke-width="2" />
    <text x="0" y="-26" fill="#71717a" font-family="system-ui" font-size="10" text-anchor="middle" font-weight="600">Firestore DB</text>
  </g>

  <!-- Node 4: Calendar Sync (Bottom Middle) -->
  <g transform="translate(520, 200)">
    <circle cx="0" cy="0" r="18" fill="#111115" stroke="#10b981" stroke-width="1.5" />
    <rect x="-6" y="-6" width="12" height="12" rx="2" fill="none" stroke="#10b981" stroke-width="1.5" />
    <line x1="-3" y1="-6" x2="-3" y2="-3" stroke="#10b981" stroke-width="1.5" />
    <line x1="3" y1="-6" x2="3" y2="-3" stroke="#10b981" stroke-width="1.5" />
    <text x="0" y="30" fill="#71717a" font-family="system-ui" font-size="10" text-anchor="middle" font-weight="600">GCal API</text>
  </g>
</svg>
